<svg width="164" height="35" viewBox="0 0 164 35" fill="none" xmlns="http://www.w3.org/2000/svg">
<path fill-rule="evenodd" clip-rule="evenodd" d="M6.4716 9.04287C9.23775 5.61908 13.6673 3.40094 18.6598 3.40094C23.6817 3.40094 28.1337 5.64525 30.8966 9.10338C30.7789 9.21465 30.6719 9.32998 30.5749 9.44515C30.0688 10.0482 29.688 10.825 29.383 11.6138C28.7687 13.2002 28.3001 15.2726 27.8663 17.2131L27.8277 17.3875C27.3949 19.3245 26.9925 21.1259 26.506 22.4632C26.2875 23.0639 26.0802 23.4887 25.8964 23.7607C25.7047 23.4865 25.4871 23.0566 25.2568 22.4472C24.7365 21.0715 24.2988 19.2004 23.835 17.2025L23.8199 17.1371V17.137C23.3741 15.218 22.9013 13.1819 22.3116 11.6233C22.0155 10.8403 21.652 10.0713 21.1767 9.47384C20.7101 8.88751 19.9336 8.22579 18.7978 8.22579C17.6692 8.22579 16.889 8.88033 16.4157 9.46009C15.9312 10.0537 15.5535 10.8195 15.2423 11.6028C14.6156 13.1802 14.1032 15.2436 13.6264 17.1868L13.5771 17.3875C13.105 19.3125 12.6636 21.1121 12.1625 22.4519C11.9713 22.9636 11.7908 23.3529 11.6274 23.6309C11.4677 23.3541 11.2917 22.9675 11.1056 22.4601C10.625 21.1488 10.2039 19.3996 9.75163 17.5208L9.67246 17.192C9.20388 15.2476 8.69551 13.1805 8.05989 11.5982C7.7441 10.812 7.35782 10.0423 6.85798 9.44592C6.74478 9.31094 6.61616 9.1739 6.4716 9.04287ZM4.79745 11.6718C4.92919 11.9112 5.06857 12.2079 5.21266 12.5666C5.76285 13.9363 6.22893 15.8052 6.7089 17.7968L6.80233 18.1849C7.23933 20.0021 7.69391 21.8924 8.22937 23.3529C8.51416 24.1296 8.85809 24.8904 9.30039 25.4816C9.71867 26.0409 10.4691 26.7632 11.6229 26.7632C12.7734 26.7632 13.5256 26.0444 13.9467 25.4877C14.3928 24.8978 14.7424 24.1379 15.0329 23.3606C15.5899 21.8713 16.0641 19.9366 16.518 18.0851V18.085L16.5874 17.802C17.0764 15.8092 17.5471 13.9366 18.0933 12.562C18.3463 11.9251 18.5832 11.4814 18.7894 11.2062C18.9848 11.4791 19.2081 11.9157 19.4449 12.5416C19.9653 13.9173 20.4025 15.7884 20.8665 17.7863L20.8817 17.8517C21.3274 19.7708 21.8002 21.807 22.3898 23.3654C22.686 24.1486 23.0495 24.9176 23.5248 25.515C23.9915 26.1014 24.7679 26.7632 25.9035 26.7632C27.0452 26.7632 27.8188 26.0954 28.2799 25.5037C28.748 24.9034 29.1001 24.1318 29.3844 23.3498C29.931 21.8478 30.3656 19.8989 30.78 18.045V18.0449L30.8393 17.7758C31.2856 15.7803 31.7138 13.9165 32.2426 12.551C32.3571 12.254 32.47 12.0007 32.5776 11.788C33.3879 13.4968 33.8372 15.3838 33.8372 17.3674C33.8372 25.0807 27.0423 31.3339 18.6598 31.3339C10.2774 31.3339 3.48218 25.0807 3.48218 17.3674C3.48218 15.3388 3.95219 13.4111 4.79745 11.6718ZM18.6598 0.607666C8.60096 0.607666 0.446655 8.11123 0.446655 17.3674C0.446655 26.6235 8.60096 34.127 18.6598 34.127C28.7189 34.127 36.8728 26.6235 36.8728 17.3674C36.8728 8.11123 28.7189 0.607666 18.6598 0.607666ZM19.0068 10.9724C19.0068 10.9727 19.0032 10.9753 18.9961 10.9791C19.0032 10.9739 19.0068 10.972 19.0068 10.9724ZM18.5872 10.9743C18.5802 10.9703 18.5767 10.9676 18.5767 10.9672C18.5767 10.9669 18.5802 10.9689 18.5872 10.9743ZM25.6727 24.0258C25.6727 24.0258 25.676 24.0228 25.6826 24.0189C25.676 24.0241 25.6727 24.0262 25.6727 24.0258ZM26.114 24.0146C26.1211 24.0185 26.1249 24.0211 26.1249 24.0215C26.1249 24.0219 26.1211 24.0198 26.114 24.0146ZM11.3118 24.0509C11.3118 24.0505 11.3162 24.0466 11.3249 24.041C11.3162 24.0483 11.3118 24.0513 11.3118 24.0509ZM11.9266 24.0435C11.9353 24.0492 11.9396 24.0531 11.9396 24.0535C11.9396 24.054 11.9352 24.0513 11.9266 24.0435Z" fill="#81818B"/>
<path d="M46.9295 27.2895L42.5129 13.3873H46.3815L49.001 23.3935L52.0466 13.3873H56.372L59.4182 23.3935L62.0679 13.3873H65.9365L61.4892 27.2895H57.4383L54.2093 16.8909L50.9809 27.2895H46.9295Z" fill="#81818B"/>
<path d="M71.6129 27.626C70.3134 27.626 69.2472 27.4387 68.4146 27.065C67.5826 26.6728 66.9631 26.159 66.5567 25.5236C66.1507 24.8882 65.9478 24.1876 65.9478 23.4216C65.9478 22.1323 66.4957 21.0858 67.5922 20.2824C68.6886 19.4789 70.3341 19.0771 72.527 19.0771H76.3649V18.7408C76.3649 17.7878 76.0702 17.0871 75.4815 16.6386C74.8927 16.1902 74.1614 15.966 73.2885 15.966C72.4963 15.966 71.8058 16.1435 71.217 16.4985C70.6282 16.8349 70.2626 17.3394 70.1205 18.012H66.3129C66.4146 17.003 66.7803 16.1248 67.4093 15.3774C68.0596 14.63 68.8921 14.06 69.907 13.6676C70.9229 13.2566 72.0596 13.051 73.3188 13.051C75.4714 13.051 77.1667 13.5462 78.4057 14.5365C79.6442 15.5269 80.2637 16.9283 80.2637 18.7408V27.2895H76.943L76.5779 25.0474C76.1312 25.7948 75.5016 26.4111 74.6897 26.8973C73.8975 27.3829 72.872 27.626 71.6129 27.626ZM72.4963 24.8229C73.6134 24.8229 74.4762 24.4864 75.0851 23.8139C75.7146 23.1413 76.111 22.3096 76.2737 21.3194H72.9531C71.9176 21.3194 71.1767 21.4969 70.7294 21.8519C70.2832 22.1881 70.0596 22.6089 70.0596 23.1132C70.0596 23.6551 70.2832 24.0755 70.7294 24.3744C71.1767 24.6733 71.765 24.8229 72.4963 24.8229Z" fill="#81818B"/>
<path d="M86.4009 27.2895L80.8577 13.3873H84.9388L88.7766 23.8982L92.6145 13.3873H96.6961L91.1222 27.2895H86.4009Z" fill="#81818B"/>
<path d="M104.533 27.626C103.011 27.626 101.661 27.3267 100.483 26.729C99.305 26.1308 98.3813 25.29 97.711 24.2062C97.0406 23.1227 96.7062 21.8706 96.7062 20.4505C96.7062 19.0117 97.031 17.7318 97.6802 16.6106C98.3506 15.4895 99.2642 14.6206 100.422 14.004C101.599 13.3687 102.98 13.051 104.564 13.051C106.046 13.051 107.356 13.35 108.494 13.9479C109.63 14.5458 110.514 15.368 111.143 16.4144C111.793 17.4421 112.119 18.5913 112.119 19.8619C112.119 20.0675 112.108 20.2824 112.088 20.5066C112.088 20.7308 112.077 20.9644 112.057 21.2073H100.574C100.655 22.291 101.062 23.1413 101.793 23.7581C102.544 24.3744 103.448 24.6828 104.504 24.6828C105.295 24.6828 105.955 24.5241 106.483 24.2062C107.031 23.8701 107.438 23.4402 107.701 22.9168H111.661C111.377 23.7953 110.9 24.5989 110.23 25.3276C109.58 26.0374 108.768 26.5979 107.793 27.0092C106.839 27.4201 105.752 27.626 104.533 27.626ZM104.564 15.966C103.61 15.966 102.767 16.2182 102.036 16.7227C101.305 17.2086 100.838 17.956 100.635 18.965H108.158C108.097 18.0494 107.732 17.3206 107.062 16.7788C106.391 16.2369 105.559 15.966 104.564 15.966Z" fill="#81818B"/>
<path d="M114.179 27.2895V7.10889H118.078V27.2895H114.179Z" fill="#81818B"/>
<path d="M128.183 27.626C126.661 27.626 125.31 27.3267 124.132 26.729C122.955 26.1308 122.031 25.29 121.361 24.2062C120.69 23.1227 120.356 21.8706 120.356 20.4505C120.356 19.0117 120.681 17.7318 121.33 16.6106C122 15.4895 122.914 14.6206 124.072 14.004C125.249 13.3687 126.63 13.051 128.214 13.051C129.696 13.051 131.006 13.35 132.144 13.9479C133.28 14.5458 134.164 15.368 134.793 16.4144C135.443 17.4421 135.768 18.5913 135.768 19.8619C135.768 20.0675 135.758 20.2824 135.738 20.5066C135.738 20.7308 135.727 20.9644 135.707 21.2073H124.224C124.305 22.291 124.712 23.1413 125.442 23.7581C126.193 24.3744 127.097 24.6828 128.154 24.6828C128.945 24.6828 129.605 24.5241 130.133 24.2062C130.681 23.8701 131.087 23.4402 131.351 22.9168H135.312C135.027 23.7953 134.549 24.5989 133.88 25.3276C133.229 26.0374 132.417 26.5979 131.442 27.0092C130.488 27.4201 129.402 27.626 128.183 27.626ZM128.214 15.966C127.26 15.966 126.417 16.2182 125.686 16.7227C124.955 17.2086 124.488 17.956 124.284 18.965H131.808C131.747 18.0494 131.382 17.3206 130.712 16.7788C130.041 16.2369 129.209 15.966 128.214 15.966Z" fill="#81818B"/>
<path d="M144.073 27.626C142.733 27.626 141.555 27.4296 140.54 27.0374C139.524 26.6261 138.712 26.0655 138.103 25.3553C137.494 24.6456 137.128 23.8234 137.006 22.8892H140.935C141.057 23.4307 141.383 23.8982 141.91 24.2905C142.458 24.6642 143.159 24.8511 144.012 24.8511C144.865 24.8511 145.484 24.6923 145.87 24.3744C146.276 24.057 146.479 23.6924 146.479 23.2815C146.479 22.6833 146.195 22.2815 145.626 22.0761C145.058 21.8519 144.266 21.6371 143.25 21.4315C142.601 21.3007 141.941 21.1419 141.271 20.955C140.6 20.7682 139.981 20.5346 139.413 20.2543C138.864 19.9553 138.418 19.5816 138.072 19.1332C137.727 18.666 137.555 18.0961 137.555 17.4234C137.555 16.1902 138.083 15.1532 139.139 14.3123C140.215 13.4714 141.717 13.051 143.647 13.051C145.434 13.051 146.855 13.4341 147.91 14.2002C148.987 14.9663 149.626 16.022 149.83 17.3674H146.144C145.921 16.3397 145.078 15.8258 143.616 15.8258C142.885 15.8258 142.316 15.9567 141.91 16.2183C141.525 16.4799 141.332 16.8068 141.332 17.1992C141.332 17.6103 141.626 17.9373 142.215 18.1802C142.804 18.4231 143.586 18.6473 144.56 18.8529C145.616 19.0771 146.58 19.3294 147.454 19.6097C148.347 19.8713 149.058 20.273 149.586 20.8149C150.114 21.3381 150.378 22.0947 150.378 23.0851C150.399 23.9449 150.154 24.72 149.647 25.4116C149.139 26.1027 148.409 26.6446 147.454 27.0374C146.5 27.4296 145.373 27.626 144.073 27.626Z" fill="#81818B"/>
<path d="M157.379 28.2449C156.052 28.2449 154.885 28.044 153.879 27.6428C152.873 27.222 152.069 26.6487 151.465 25.9222C150.862 25.1962 150.499 24.3552 150.379 23.3996H154.272C154.392 23.9535 154.714 24.4317 155.237 24.833C155.78 25.2152 156.474 25.4064 157.319 25.4064C158.164 25.4064 158.778 25.244 159.16 24.9188C159.562 24.5941 159.764 24.2212 159.764 23.8008C159.764 23.189 159.482 22.778 158.918 22.5678C158.355 22.3386 157.571 22.1188 156.565 21.9085C155.921 21.7747 155.267 21.6123 154.603 21.4211C153.94 21.23 153.326 20.991 152.763 20.7044C152.22 20.3985 151.777 20.0163 151.435 19.5575C151.093 19.0797 150.922 18.4967 150.922 17.8086C150.922 16.5471 151.445 15.4864 152.491 14.6262C153.558 13.7661 155.046 13.3361 156.957 13.3361C158.727 13.3361 160.135 13.7279 161.182 14.5115C162.247 15.2952 162.881 16.3751 163.083 17.7513H159.431C159.21 16.7001 158.375 16.1744 156.927 16.1744C156.202 16.1744 155.639 16.3082 155.237 16.5758C154.855 16.8434 154.664 17.1779 154.664 17.5793C154.664 17.9998 154.955 18.3343 155.539 18.5828C156.122 18.8312 156.896 19.0606 157.862 19.2709C158.908 19.5002 159.864 19.7582 160.729 20.0449C161.614 20.3125 162.318 20.7235 162.841 21.2778C163.364 21.8129 163.626 22.5869 163.626 23.6C163.646 24.4795 163.404 25.2723 162.901 25.9797C162.398 26.6867 161.675 27.2411 160.729 27.6428C159.783 28.044 158.667 28.2449 157.379 28.2449Z" fill="#81818B"/>
</svg>
